<svg width="1600" height="2080" viewBox="0 0 1600 2080" fill="none" xmlns="http://www.w3.org/2000/svg">
<g opacity="0.5">
<path d="M136.949 1327.26C164.073 1082.36 436.256 926.885 640.744 930.013C876.393 933.647 965.207 1147.06 1144.54 1082.15C1308.19 1022.99 1317.83 814.894 1438.14 782.1C1548.71 751.968 1723.67 877.778 2012 1500.53" stroke="white" stroke-opacity="0.3" stroke-miterlimit="10"/>
<path d="M1998.25 1528.13C1713.43 914.374 1538.37 783.704 1426.23 808.257C1343.12 826.598 1311.09 927.644 1246.06 1006.63C1213.61 1047.29 1173.69 1077.1 1129.89 1093.39C986.426 1146.89 900.914 1028.48 747.607 977.681C708.531 964.583 668.374 957.349 627.964 956.128C422.643 949.07 153.496 1083.84 122.167 1319.82" stroke="white" stroke-opacity="0.3" stroke-miterlimit="10"/>
<path d="M1984.48 1555.64C1703.15 950.933 1528.09 815.445 1414.62 834.462C1331.21 848.451 1297.28 944.679 1232.12 1019.65C1198.89 1058.85 1159.03 1087.91 1115.58 1104.64C974.183 1159.03 888.705 1052.36 734.864 1003.93C695.768 991.516 655.763 984.265 615.488 982.291C409.299 972.106 143.222 1085.32 107.689 1312.39" stroke="white" stroke-opacity="0.3" stroke-miterlimit="10"/>
<path d="M1970.73 1583.07C1692.97 987.531 1517.81 847.267 1402.87 860.621C1319.1 870.341 1283.4 961.667 1218.01 1032.67C1184.07 1070.38 1144.3 1098.72 1101.23 1115.88C961.771 1171.15 876.626 1076.19 722.085 1030.17C682.952 1018.33 643.052 1011.02 602.875 1008.32C395.852 994.546 132.845 1086.67 93.1082 1304.83" stroke="white" stroke-opacity="0.3" stroke-miterlimit="10"/>
<path d="M1956.98 1610.71C1682.73 1024.09 1507.6 879.13 1391.1 886.822C1307.05 892.316 1269.42 978.739 1203.82 1045.64C1169.16 1081.88 1129.4 1109.52 1086.65 1127.12C949.125 1183.28 864.214 1100.07 708.905 1056.41C669.815 1045.27 630.106 1037.95 590.129 1034.52C382.239 1017.15 122.301 1088.24 78.327 1297.47" stroke="white" stroke-opacity="0.3" stroke-miterlimit="10"/>
<path d="M1943.37 1638.26C1672.52 1060.64 1497.29 906.896 1379.32 912.982C1295.11 917.208 1255.44 995.517 1189.71 1058.65C1154.33 1093.37 1114.6 1120.31 1072.17 1138.36C936.58 1195.41 851.969 1123.95 696.126 1082.7C657.05 1072.13 617.476 1064.76 577.651 1060.64C368.893 1039.51 112.025 1089.67 63.8471 1290.03" stroke="white" stroke-opacity="0.3" stroke-miterlimit="10"/>
<path d="M1929.46 1665.82C1662.28 1097.24 1487.19 943.157 1367.58 938.931C1283.1 936.48 1241.4 1012.55 1175.57 1071.71C1139.52 1104.89 1099.8 1131.14 1057.7 1149.64C924.041 1207.58 839.63 1147.83 683.22 1108.99C644.154 1099.05 604.71 1091.66 565.046 1086.84C355.42 1062.12 101.621 1091.07 49.2397 1282.64" stroke="white" stroke-opacity="0.3" stroke-miterlimit="10"/>
<path d="M1915.71 1693.37C1652.14 1133.79 1477.01 974.935 1355.8 965.342C1271.12 958.495 1227.28 1029.2 1161.42 1084.69C1124.72 1116.28 1085 1141.84 1043.21 1160.76C911.524 1219.63 827.313 1171.66 670.303 1135.1C633.769 1126.65 594.767 1118.54 552.428 1112.83C341.902 1084.39 91.2057 1092.59 34.6206 1275.16" stroke="white" stroke-opacity="0.3" stroke-miterlimit="10"/>
<path d="M1901.97 1720.92C1641.83 1170.39 1466.84 1007.18 1344.06 991.417C1259.15 980.556 1213.14 1045.89 1147.21 1097.62C1109.86 1127.62 1070.12 1152.54 1028.64 1171.95C898.883 1231.71 814.939 1195.41 657.295 1161.35C620.595 1153.4 581.692 1145.37 539.687 1138.95C328.56 1106.83 80.8 1094.07 20.011 1267.68" stroke="white" stroke-opacity="0.3" stroke-miterlimit="10"/>
<path d="M1888.19 1748.44C1631.58 1206.95 1456.66 1039.34 1332.28 1017.7C1247.17 1002.87 1198.82 1062.67 1133.16 1110.68C1095.22 1139.07 1055.45 1163.36 1014.29 1183.28C886.435 1243.93 802.725 1219.37 644.48 1187.51C607.779 1180.07 568.844 1172.04 527.172 1164.94C314.944 1128.93 70.387 1095.29 5.39408 1260.03" stroke="white" stroke-opacity="0.3" stroke-miterlimit="10"/>
<path d="M1874.44 1775.99C1621.37 1243.5 1446.48 1071.59 1320.6 1043.86C1235.29 1025.1 1184.74 1079.28 1119.08 1123.74C1080.55 1150.46 1040.73 1174.1 999.871 1194.52C873.989 1256.06 790.513 1243.21 631.634 1213.96C594.767 1207.12 555.931 1199.05 514.627 1191.31C301.531 1151.42 60.0768 1096.99 -9.18669 1252.8" stroke="white" stroke-opacity="0.3" stroke-miterlimit="10"/>
<path d="M1860.69 1803.55C1611.13 1280.1 1436.24 1103.83 1308.75 1070.02C1223.21 1047.37 1170.43 1095.85 1104.9 1136.75C1067.23 1160.25 1028.66 1183.96 985.324 1205.77C861.377 1268.14 778.134 1267.09 618.654 1240.21C581.687 1233.91 542.918 1225.8 501.881 1217.43C287.918 1173.65 49.533 1098.42 -23.9009 1245.37" stroke="white" stroke-opacity="0.3" stroke-miterlimit="10"/>
<path d="M1846.95 1831.1C1600.89 1316.83 1426.23 1136.16 1297.01 1096.22C1211.23 1069.64 1156.11 1112.33 1090.75 1149.77C1052.18 1171.87 1013.52 1194.9 970.843 1217.01C848.831 1280.4 765.855 1290.92 605.742 1266.45C568.674 1260.75 529.939 1252.59 489.335 1243.55C274.538 1195.79 39.1895 1099.86 -38.4483 1237.92" stroke="white" stroke-opacity="0.3" stroke-miterlimit="10"/>
<path d="M1833.27 1858.65C1590.68 1353.25 1415.86 1168.53 1285.27 1122.43C1199.26 1092.04 1141.8 1128.77 1076.61 1162.83C1037.11 1183.45 998.373 1205.85 956.501 1228.29C836.391 1292.44 753.715 1314.84 592.834 1292.78C555.634 1287.58 516.998 1279.38 476.728 1269.75C261.064 1217.94 28.7842 1101.3 -53.0575 1230.49" stroke="white" stroke-opacity="0.3" stroke-miterlimit="10"/>
<path d="M1819.42 1886.16C1580.43 1389.81 1405.7 1200.99 1273.48 1148.59C1187.2 1114.35 1127.45 1145.08 1062.49 1175.8C1022.05 1194.9 983.183 1216.75 941.878 1239.49C823.77 1304.53 741.261 1338.63 579.913 1318.98C541.012 1313.73 502.348 1305.96 464.074 1295.7C247.609 1240.04 18.2656 1102.82 -67.6798 1223.01" stroke="white" stroke-opacity="0.3" stroke-miterlimit="10"/>
<path d="M1805.67 1913.72C1570.19 1426.41 1395.3 1233.32 1261.84 1174.75C1175.3 1136.71 1113.21 1161.35 1048.31 1188.82C1006.94 1206.36 968.007 1227.66 927.403 1250.73C811.196 1316.66 728.954 1362.51 567.073 1345.23C528.205 1340.61 489.612 1332.83 451.534 1321.94C234.168 1261.89 7.96073 1104.25 -82.322 1215.4" stroke="white" stroke-opacity="0.3" stroke-miterlimit="10"/>
<path d="M1791.93 1941.27C1559.99 1462.96 1384.89 1265.94 1249.97 1200.9C1163.22 1159.15 1098.76 1177.53 1034.2 1201.79C991.9 1217.72 952.897 1238.6 912.961 1261.97C798.723 1328.79 716.681 1386.35 554.098 1371.47C515.266 1367.44 476.738 1359.61 438.86 1348.06C220.76 1284.03 -2.44483 1105.73 -96.9314 1208.13" stroke="white" stroke-opacity="0.3" stroke-miterlimit="10"/>
<path d="M1778.15 1968.82C1549.74 1499.73 1374.75 1298.44 1238.22 1227.11C1151.11 1181.55 1084.41 1193.63 1020.09 1214.81C976.715 1229.05 937.746 1249.5 898.477 1273.21C786.174 1340.83 704.399 1410.22 541.183 1397.75C502.391 1394.28 463.923 1386.41 426.244 1374.22C207.344 1306.01 -12.8581 1107.17 -111.548 1200.69" stroke="white" stroke-opacity="0.3" stroke-miterlimit="10"/>
<path d="M1764.41 1996.38C1539.67 1536.12 1364.41 1331.02 1226.45 1253.43C1139.04 1204.16 1070.11 1209.86 1005.95 1228.08C961.739 1240.76 922.537 1260.7 884.001 1284.71C773.634 1353.3 692.092 1434.35 528.275 1424.17C489.525 1421.26 451.112 1413.33 413.637 1400.5C193.936 1328.07 -23.4298 1108.9 -126.157 1193.42" stroke="white" stroke-opacity="0.3" stroke-miterlimit="10"/>
<path d="M1750.66 2023.93C1529.29 1572.72 1354.03 1363.61 1214.7 1279.47C1126.92 1226.43 1055.79 1225.67 991.799 1240.84C946.658 1251.58 907.422 1271.4 869.521 1295.78C761.121 1365.26 679.813 1458.02 515.363 1450.33C476.654 1448 438.287 1440.01 401.025 1426.54C180.556 1349.75 -33.6735 1110.09 -140.772 1185.82" stroke="white" stroke-opacity="0.3" stroke-miterlimit="10"/>
<path d="M1736.88 2051.45C1519.05 1609.27 1343.65 1396.4 1203.06 1305.63C1114.94 1248.91 1041.64 1241.6 977.816 1253.86C931.741 1262.69 892.405 1282.3 855.204 1306.89C748.706 1377.3 667.632 1481.81 502.581 1476.49C463.908 1474.69 425.575 1466.66 388.51 1452.57C167.44 1371.09 -43.9533 1111.57 -155.322 1178.34" stroke="white" stroke-opacity="0.3" stroke-miterlimit="10"/>
<path d="M1723.17 2079C1375.38 1375.99 1129.56 1242.36 963.538 1266.87C782.306 1293.62 713.142 1506.66 489.537 1502.77C227.23 1498.17 -34.9096 1103.2 -170 1170.9" stroke="white" stroke-opacity="0.3" stroke-miterlimit="10"/>
<g opacity="0.5" filter="url(#filter0_f_0_112)">
<path d="M-185.172 231.989C25.0799 469.367 59.1454 527.006 535.008 758.801C924.631 1803.63 659.353 531.614 696.447 913.423C605.391 1499.47 302.719 1443.89 117.332 1090.72C-166.562 867.646 -336.376 311.361 -185.172 231.989Z" fill="url(#paint0_linear_0_112)" fill-opacity="0.7"/>
</g>
<g opacity="0.5" filter="url(#filter1_f_0_112)">
<path d="M1956.58 1702.72C1704.48 1510.37 1659.93 1460.38 1148.29 1324.75C564.409 374.72 1070.11 1571.66 960.052 1204.18C936.332 611.571 1244.04 607.719 1494.08 918.484C1815.68 1082.6 2089.63 1595.67 1956.58 1702.72Z" fill="url(#paint1_linear_0_112)" fill-opacity="0.7"/>
</g>
</g>
<defs>
<filter id="filter0_f_0_112" x="-441.654" y="31.9895" width="1392.15" height="1523.78" filterUnits="userSpaceOnUse" color-interpolation-filters="sRGB">
<feFlood flood-opacity="0" result="BackgroundImageFix"/>
<feBlend mode="normal" in="SourceGraphic" in2="BackgroundImageFix" result="shape"/>
<feGaussianBlur stdDeviation="100" result="effect1_foregroundBlur_0_112"/>
</filter>
<filter id="filter1_f_0_112" x="661.09" y="513.719" width="1529.88" height="1389" filterUnits="userSpaceOnUse" color-interpolation-filters="sRGB">
<feFlood flood-opacity="0" result="BackgroundImageFix"/>
<feBlend mode="normal" in="SourceGraphic" in2="BackgroundImageFix" result="shape"/>
<feGaussianBlur stdDeviation="100" result="effect1_foregroundBlur_0_112"/>
</filter>
<linearGradient id="paint0_linear_0_112" x1="675.363" y1="1822.83" x2="836.269" y2="371.475" gradientUnits="userSpaceOnUse">
<stop stop-color="#267DFF"/>
<stop offset="0.555364" stop-color="#ED0080"/>
<stop offset="0.837522" stop-color="#00FFE0"/>
</linearGradient>
<linearGradient id="paint1_linear_0_112" x1="805.289" y1="307.785" x2="927.413" y2="1762.92" gradientUnits="userSpaceOnUse">
<stop stop-color="#267DFF"/>
<stop offset="0.555364" stop-color="#ED0080"/>
<stop offset="0.909375" stop-color="#00FFE0"/>
</linearGradient>
</defs>
</svg>
